DataType=double
version=3
OpenSimVersion=4.5-2024-01-10-34fd6af
endheader
time	pelvis_tilt	pelvis_list	pelvis_rotation	pelvis_tx	pelvis_ty	pelvis_tz	hip_flexion_r	hip_adduction_r	hip_rotation_r	knee_angle_r	knee_adduction_r	knee_angle_r_beta	ankle_angle_r	subtalar_angle_r	mtp_angle_r	hip_flexion_l	hip_adduction_l	hip_rotation_l	knee_angle_l	knee_adduction_l	knee_angle_l_beta	ankle_angle_l	subtalar_angle_l	mtp_angle_l	lumbar_extension	lumbar_bending	lumbar_rotation	arm_flex_r	arm_add_r	arm_rot_r	elbow_flex_r	pro_sup_r	wrist_flex_r	wrist_dev_r	arm_flex_l	arm_add_l	arm_rot_l	elbow_flex_l	pro_sup_l	wrist_flex_l	wrist_dev_l
38.58	-0.08170289580035184	-0.05651266284118578	0.08370943462668792	1.089068167598598	0.9439567284654015	0.4961524535440679	0.3607762124164116	6.272071498731046	0.0648145365613404	0.4186120238661037	0.03879643	0.4186120238661037	0.09068730510024983	-0.5421624640023579	-0.1451869731454057	6.751881731693457	6.081893858223139	-6.238624140164111	1.173571800597941	0.09396746	1.173571800597941	0.1380166671952505	-0.4093225595139711	0.1173698883607279	-0.08919815173117558	0.06519877054158485	0.08114964948161509	-0.06033474204977567	-0.2288982108648546	-0.2051634414360818	0.5990581318472901	1.57079633	0	0	0.1718674098924342	-0.1565304946913928	-0.07007641591417262	1.242462239767775	1.57079633	0	0
38.59	-0.07977476138460286	-0.05913281990278732	0.08851597396274168	1.088179312807902	0.9446557445295203	0.4970021061994221	0.346467817789726	6.277341841204194	0.06805501894218118	0.4108765726374796	0.03879643	0.4108765726374796	0.09373710162356474	-0.551073483840508	-0.1400046421409475	6.775746873131665	6.080407393524752	-6.234873928136172	1.164617919763041	0.09396746	1.164617919763041	0.1404673916133972	-0.4032906499653254	0.1162527021305806	-0.09173062058704855	0.06626874363150446	0.08416813971084862	-0.03521602977090497	-0.2364716619443408	-0.2039962779439845	0.6248875337024525	1.57079633	0	0	0.1604566203837503	-0.1499262902076465	-0.06423555624966165	1.186631929497679	1.57079633	0	0
38.6	-0.07736134733496809	-0.06196642791118544	0.09347116202853681	1.08722896201714	0.9453429791734455	0.4977667296808854	0.3314020390294873	6.282830801882834	0.0715120794069258	0.4023779207069109	0.03879643	0.4023779207069109	0.09681545323692373	-0.5599649283389305	-0.1341853479458952	6.797605592986582	6.078929627280388	-6.232179507816713	1.149519933522227	0.09396746	1.149519933522227	0.141859384385019	-0.3959825874450543	0.1129104969918238	-0.09491086881153155	0.0677331164407141	0.08668595165341697	-0.009319180521125903	-0.2443458474119398	-0.2025870750430576	0.6523506772041958	1.57079633	0	0	0.1495838210410589	-0.1438089030098604	-0.05855637458260443	1.128787941828845	1.57079633	0	0
38.61	-0.07453700381961678	-0.06505716967040534	0.09849130893356854	1.086233926559537	0.9460160367338253	0.4984429690421939	0.3155164124911802	6.288545873187452	0.07504911450515005	0.3928551639862757	0.03879643	0.3928551639862757	0.09980793790334712	-0.5686335023909558	-0.1280840531170188	6.817300142157463	6.077408433904579	-6.230602866667973	1.128284846485889	0.09396746	1.128284846485889	0.1420641574950071	-0.3876347416343434	0.1081352480066227	-0.09861343337040042	0.06966299412244586	0.08874156459513495	0.01719780517209364	-0.2524348006849779	-0.2012046592755096	0.6816030891287	1.57079633	0	0	0.1390691125892709	-0.1381964775003549	-0.05295910721361906	1.069411020058965	1.57079633	0	0
38.62	-0.07141864931934512	-0.06844591795058097	0.1034965682761295	1.085211480141985	0.946665940364972	0.4990273452341525	0.2988207045866841	6.294489840458035	0.07853801104825614	0.3821060027136548	0.03879643	0.3821060027136548	0.1025858702255904	-0.5768996752700655	-0.1220594321838164	6.834737388671165	6.075803786599068	-6.230177639006643	1.10094946420559	0.09396746	1.10094946420559	0.1410700566909078	-0.378368593509613	0.1026260882479281	-0.102661827977056	0.07211319634253863	0.09038899134190838	0.04415292597548498	-0.2606371186119628	-0.2001027112343494	0.7127725629483794	1.57079633	0	0	0.1287023086903425	-0.1331062250404235	-0.0473352912462759	1.009097525309621	1.57079633	0	0
38.63	-0.06816253930377525	-0.0721687733648087	0.1084133806452759	1.084178240627316	0.947277517828113	0.4995165828861804	0.2814050873640271	6.300659628545541	0.08186177375105806	0.3700089648593394	0.03879643	0.3700089648593394	0.1050273149565062	-0.5846075324159368	-0.1164615572196426	6.849902388709849	6.074089332856658	-6.230907585728555	1.067610929088125	0.09396746	1.067610929088125	0.1389621800553335	-0.3681768050357478	0.09693227051089719	-0.1068362141947087	0.07511970517426189	0.09168884728484723	0.07135880521842988	-0.2688413673498184	-0.1994967571966206	0.7459372175367982	1.57079633	0	0	0.1182451122456071	-0.1285558020553782	-0.04155841116205848	0.9485544999728126	1.57079633	0	0
38.64	-0.06495631519713854	-0.07625377362602645	0.1131758429998669	1.083149118951377	0.9478305721710168	0.4999077001393528	0.263438997640435	6.307043831175214	0.0849172642969136	0.3565368301357186	0.03879643	0.3565368301357186	0.1070347622365228	-0.5916237686315277	-0.1116202019835675	6.862865051262875	6.072254378583654	-6.232768487689691	1.028461074898125	0.09396746	1.028461074898125	0.1358971228565904	-0.3569263170282279	0.0914208836009784	-0.1108864709530203	0.07869781208894933	0.09269922443180244	0.09864079937850237	-0.2769325154907892	-0.1995468144776202	0.7811122548260062	1.57079633	0	0	0.107438409060344	-0.1245631522160196	-0.03549518548291841	0.8885762652910165	1.57079633	0	0
38.65	-0.06200628593844767	-0.08071686795885694	0.1177264383554792	1.082136542379943	0.9483017192257621	0.5001979493067109	0.2451602127684754	6.313619734118397	0.08761820994758907	0.3417609462873684	0.03879643	0.3417609462873684	0.1085482114396676	-0.5978367730968523	-0.1078327829578492	6.873778050760568	6.070305581182821	-6.235712733432907	0.9838206353609344	0.09396746	0.9838206353609344	0.1320760229874471	-0.3443791754199402	0.08627033984961049	-0.1145500901916999	0.08284104781508989	0.09346830252994608	0.1258514983797511	-0.2847987246516911	-0.2003469322306794	0.8182462048871358	1.57079633	0	0	0.09601494763537499	-0.1211446061594314	-0.02901746889795164	0.8300046478574404	1.57079633	0	0
38.66	-0.05952093189473967	-0.08555778986492579	0.1220164176735414	1.081150123639912	0.9486666559901989	0.5003847473202702	0.2268553937664421	6.320350657958208	0.08989855483390688	0.3258472291000214	0.03879643	0.3258472291000214	0.1095532660235334	-0.6031564597710901	-0.1053513135628203	6.882865617006182	6.068267718796017	-6.239675625913499	0.9341689955135977	0.09396746	0.9341689955135977	0.1277188464468862	-0.3302296237729676	0.08148760812059548	-0.1175731890393173	0.08752070974623666	0.09402999831489205	0.1528796568656325	-0.2923375255900522	-0.2019220153720794	0.8572251839730798	1.57079633	0	0	0.08371589760733751	-0.1183117824108905	-0.02201473230063057	0.7736788381798917	1.57079633	0	0
38.67	-0.05769260787653713	-0.09075645187845864	0.1260058452324522	1.080196851789036	0.9489025458013282	0.5004657131991518	0.2088349007964785	6.327184302453649	0.09171611209105035	0.3090453716760811	0.03879643	0.3090453716760811	0.1100844676391586	-0.6075150310121091	-0.1043683394676514	6.890404430389207	6.066183092670139	-6.244582377448919	0.8801652313670477	0.09396746	0.8801652313670477	0.1230419725260437	-0.3141540004034113	0.07694461965061301	-0.1197320202076895	0.09268581820941324	0.09440306820494579	0.1796531254161809	-0.299460533231803	-0.2042313996106834	0.8978822011623302	1.57079633	0	0	0.07030859887984675	-0.1160682588954699	-0.01440681396054364	0.7203827924702815	1.57079633	0	0
